HIERARCHY
ROOT Hips
{
	OFFSET 58.330601 -11.804016 96.945000
	CHANNELS 6 Xposition Yposition Zposition Xrotation Yrotation Zrotation
	JOINT spine
	{
		OFFSET 0.000000 -0.458068 7.965683
		CHANNELS 3 Xrotation Yrotation Zrotation
		JOINT spine1
		{
			OFFSET 0.000000 -0.000002 10.243103
			CHANNELS 3 Xrotation Yrotation Zrotation
			JOINT spine2
			{
				OFFSET 0.000000 -0.000001 9.814751
				CHANNELS 3 Xrotation Yrotation Zrotation
				JOINT Neck
				{
					OFFSET 0.000000 -1.201385 25.198608
					CHANNELS 3 Xrotation Yrotation Zrotation
					JOINT Head
					{
						OFFSET 0.000000 -0.000001 7.613144
						CHANNELS 3 Xrotation Yrotation Zrotation
						End Site
						{
							OFFSET 0.000000 6.077327 18.428101
						}
					}
				}
				JOINT RightShoulder
				{
					OFFSET -4.132702 0.575449 10.599197
					CHANNELS 3 Xrotation Yrotation Zrotation
					JOINT RightArm
					{
						OFFSET 0.000000 -0.000003 13.901794
						CHANNELS 3 Xrotation Yrotation Zrotation
						JOINT RightArmRoll
						{
							OFFSET 0.000000 -0.000001 7.017883
							CHANNELS 3 Xrotation Yrotation Zrotation
							JOINT RightForeArm
							{
								OFFSET 0.000000 -0.000003 20.440598
								CHANNELS 3 Xrotation Yrotation Zrotation
								JOINT RightForeArmRoll
								{
									OFFSET 0.000000 -0.000002 7.875153
									CHANNELS 3 Xrotation Yrotation Zrotation
									JOINT RightHand
									{
										OFFSET 0.000000 -0.000002 15.803696
										CHANNELS 3 Xrotation Yrotation Zrotation
										End Site
										{
											OFFSET 0.000000 0.000000 0.100006
										}
									}
								}
							}
						}
					}
				}
				JOINT LeftShoulder
				{
					OFFSET 4.132702 0.575449 10.599197
					CHANNELS 3 Xrotation Yrotation Zrotation
					JOINT LeftArm
					{
						OFFSET 0.000000 -0.000003 13.901794
						CHANNELS 3 Xrotation Yrotation Zrotation
						JOINT LeftArmRoll
						{
							OFFSET 0.000000 -0.000001 7.017883
							CHANNELS 3 Xrotation Yrotation Zrotation
							JOINT LeftForeArm
							{
								OFFSET 0.000000 -0.000003 20.440598
								CHANNELS 3 Xrotation Yrotation Zrotation
								JOINT LeftForeArmRoll
								{
									OFFSET 0.000000 -0.000002 7.875153
									CHANNELS 3 Xrotation Yrotation Zrotation
									JOINT LeftHand
									{
										OFFSET 0.000000 -0.000002 15.803696
										CHANNELS 3 Xrotation Yrotation Zrotation
										End Site
										{
											OFFSET 0.000000 0.000000 0.100006
										}
									}
								}
							}
						}
					}
				}
			}
		}
	}
	JOINT RightUpLeg
	{
		OFFSET -7.060482 1.086101 -1.294701
		CHANNELS 3 Xrotation Yrotation Zrotation
		JOINT RightUpLegRoll
		{
			OFFSET 0.000000 -0.000004 18.530800
			CHANNELS 3 Xrotation Yrotation Zrotation
			JOINT RightLeg
			{
				OFFSET 0.000000 0.000004 -22.947601
				CHANNELS 3 Xrotation Yrotation Zrotation
				JOINT RightLegRoll
				{
					OFFSET 0.000000 -0.000004 23.022598
					CHANNELS 3 Xrotation Yrotation Zrotation
					JOINT RightFoot
					{
						OFFSET 0.000000 -0.000003 19.162498
						CHANNELS 3 Xrotation Yrotation Zrotation
						JOINT RightToeBase
						{
							OFFSET 0.000000 -0.000003 16.018799
							CHANNELS 3 Xrotation Yrotation Zrotation
							End Site
							{
								OFFSET 0.006790 0.894205 7.757828
							}
						}
					}
				}
			}
		}
	}
	JOINT LeftUpLeg
	{
		OFFSET 7.060482 1.086101 -1.294701
		CHANNELS 3 Xrotation Yrotation Zrotation
		JOINT LeftUpLegRoll
		{
			OFFSET 0.000000 -0.000004 18.530899
			CHANNELS 3 Xrotation Yrotation Zrotation
			JOINT LeftLeg
			{
				OFFSET 0.000000 -0.000003 22.947495
				CHANNELS 3 Xrotation Yrotation Zrotation
				JOINT LeftLegRoll
				{
					OFFSET 0.000000 -0.000004 23.235504
					CHANNELS 3 Xrotation Yrotation Zrotation
					JOINT LeftFoot
					{
						OFFSET 0.000000 -0.000004 18.949600
						CHANNELS 3 Xrotation Yrotation Zrotation
						JOINT LeftToeBase
						{
							OFFSET 0.000000 -0.000002 16.018799
							CHANNELS 3 Xrotation Yrotation Zrotation
							End Site
							{
								OFFSET -0.030426 0.894205 7.757828
							}
						}
					}
				}
			}
		}
	}
}
MOTION
Frames: 13
Frame Time: 0.041667
59.126705 -11.970524 96.983284 -5.884167 -0.648717 -3.194836 -0.146155 0.195375 -0.159676 3.710592 0.404709 -0.313809 5.355681 0.400846 -0.318527 0.842025 9.661753 -0.971510 4.725550 -8.860529 -1.169171 -9.950605 -70.176355 -12.381804 -55.965730 -116.874359 -43.977512 -0.000001 0.000001 0.000002 8.823034 -4.430431 -0.623628 0.000002 0.000007 -2.999999 -5.000179 -7.999483 0.000067 -9.087851 62.996693 10.988326 -48.481793 117.961779 40.689848 0.000001 0.000007 -0.000000 1.085037 4.800575 0.810235 0.000000 0.000003 3.000560 -5.000209 7.999431 -0.000061 4.052691 -174.468781 5.355257 -179.999991 0.000005 -1.185006 173.570885 -2.259710 -0.509556 -0.000003 -0.000001 0.129333 70.534660 6.913587 1.958317 25.456945 -7.355614 0.000000 5.146696 175.976231 -1.897314 -0.000005 -0.000005 -1.254480 -6.844875 2.329635 0.292695 -0.000006 0.000001 -0.106924 69.720823 -6.932892 -1.978346 25.456947 7.355613 -0.000010 
59.122101 -11.972924 96.985390 -5.885037 -0.649062 -3.193972 -0.146054 0.195371 -0.158872 3.710254 0.404238 -0.312724 5.355330 0.400335 -0.317443 0.813007 9.656195 -0.974596 4.742810 -8.869471 -1.171401 -9.962188 -70.180248 -12.394878 -56.011123 -116.847680 -43.942131 -0.000002 0.000000 0.000000 8.778035 -4.374539 -0.630011 0.000001 0.000008 -3.000000 -5.000182 -7.999482 0.000067 -9.077210 62.996877 10.976059 -48.473180 117.884994 40.630302 0.000002 0.000007 0.000000 1.024543 4.784880 0.812177 0.000002 0.000003 3.000549 -5.000210 7.999432 -0.000061 4.057044 -174.468809 5.355146 -179.999991 0.000005 -1.185005 173.575051 -2.258738 -0.509280 -0.000003 -0.000001 0.129332 70.535070 6.913561 1.958287 25.456945 -7.355612 -0.000001 5.157007 175.977297 -1.897238 -0.000005 -0.000004 -1.254480 -6.830130 2.329369 0.292671 -0.000005 0.000000 -0.106924 69.715522 -6.932884 -1.978375 25.456948 7.355614 -0.000011 
59.126205 -11.981821 96.985092 -5.885991 -0.649508 -3.193078 -0.145933 0.195362 -0.158044 3.709902 0.403782 -0.311602 5.354981 0.399837 -0.316323 0.783813 9.650252 -0.977865 4.760023 -8.877976 -1.173839 -9.974285 -70.184340 -12.408559 -56.056630 -116.821028 -43.907154 -0.000001 -0.000000 0.000001 8.732545 -4.319041 -0.636271 -0.000001 0.000007 -3.000001 -5.000179 -7.999481 0.000068 -9.065352 62.997444 10.962418 -48.466315 117.807663 40.572406 0.000001 0.000007 0.000000 0.962317 4.769181 0.814070 -0.000002 0.000003 3.000540 -5.000211 7.999431 -0.000061 4.061493 -174.468836 5.355105 -179.999991 0.000005 -1.185006 173.579286 -2.257766 -0.509003 -0.000003 -0.000000 0.129333 70.535514 6.913595 1.958266 25.456948 -7.355616 -0.000000 5.167805 175.978362 -1.897065 -0.000005 -0.000004 -1.254480 -6.814576 2.329067 0.292651 -0.000005 0.000001 -0.106924 69.709901 -6.932866 -1.978323 25.456947 7.355613 -0.000009 
59.119801 -11.976924 96.981903 -5.886990 -0.650023 -3.192173 -0.145794 0.195351 -0.157201 3.709562 0.403338 -0.310452 5.354640 0.399348 -0.315177 0.754498 9.644049 -0.981267 4.777230 -8.886149 -1.176411 -9.986846 -70.188690 -12.422758 -56.103871 -116.793831 -43.874345 -0.000004 0.000000 -0.000000 8.686684 -4.263807 -0.642410 0.000000 0.000007 -3.000000 -5.000179 -7.999482 0.000068 -9.052639 62.998263 10.947811 -48.458406 117.731124 40.513055 0.000004 0.000007 0.000000 0.898874 4.753468 0.815921 -0.000000 0.000003 3.000520 -5.000210 7.999431 -0.000061 4.066008 -174.469860 5.355031 -179.999991 0.000005 -1.185005 173.583520 -2.256794 -0.508724 -0.000003 -0.000001 0.129333 70.536142 6.913569 1.958225 25.456947 -7.355614 0.000001 5.178941 175.980425 -1.896716 -0.000005 -0.000004 -1.254480 -6.798461 2.328738 0.292634 -0.000005 0.000000 -0.106924 69.703863 -6.932900 -1.978307 25.456948 7.355613 -0.000010 
59.111198 -11.987523 96.984100 -5.888029 -0.650578 -3.191262 -0.145645 0.195340 -0.156348 3.709222 0.402899 -0.309289 5.354299 0.398863 -0.314016 0.725112 9.637703 -0.984746 4.794418 -8.894152 -1.179054 -9.999715 -70.193226 -12.437300 -56.149442 -116.767125 -43.839801 -0.000002 -0.000000 -0.000002 8.640649 -4.208741 -0.648448 0.000000 0.000007 -3.000001 -5.000181 -7.999482 0.000066 -9.039462 62.999315 10.932663 -48.451958 117.653902 40.455241 -0.000000 0.000007 0.000000 0.834742 4.737751 0.817733 -0.000001 0.000003 3.000509 -5.000210 7.999431 -0.000061 4.070569 -174.469888 5.355059 -179.999991 0.000005 -1.185004 173.587769 -2.256813 -0.509569 -0.000003 -0.000001 0.129331 70.536675 6.913575 1.958291 25.456948 -7.355617 0.000002 5.190264 175.982488 -1.896319 -0.000005 -0.000004 -1.254480 -6.782016 2.328401 0.292618 -0.000005 0.000001 -0.106924 69.697825 -6.932897 -1.978285 25.456943 7.355614 -0.000010 
59.126999 -11.990620 96.982094 -5.889062 -0.651143 -3.190342 -0.145491 0.195329 -0.155492 3.708882 0.402462 -0.308123 5.353959 0.398379 -0.312852 0.695711 9.631322 -0.988250 4.811611 -8.902113 -1.181716 -10.012542 -70.197665 -12.451801 -56.196761 -116.739886 -43.807228 0.000000 -0.000000 -0.000002 8.594574 -4.153695 -0.654393 0.000002 0.000008 -3.000001 -5.000177 -7.999482 0.000067 -9.026133 63.000374 10.917363 -48.444278 117.577417 40.395955 0.000002 0.000007 0.000000 0.770436 4.722046 0.819509 0.000002 0.000003 3.000490 -5.000208 7.999431 -0.000061 4.075142 -174.469929 5.355099 -179.999991 0.000005 -1.185005 173.592017 -2.255826 -0.509288 -0.000002 -0.000000 0.129333 70.537310 6.913581 1.958252 25.456945 -7.355613 -0.000001 5.201658 175.983553 -1.896007 -0.000005 -0.000004 -1.254480 -6.765500 2.328043 0.292602 -0.000005 0.000001 -0.106924 69.691685 -6.932893 -1.978267 25.456945 7.355613 -0.000010 
59.133400 -11.970523 96.990791 -5.890094 -0.651688 -3.189420 -0.145348 0.195318 -0.154642 3.708531 0.402022 -0.306962 5.353619 0.397894 -0.311694 0.666346 9.625019 -0.991724 4.828806 -8.910174 -1.184334 -10.025315 -70.202105 -12.466237 -56.242547 -116.713221 -43.772869 -0.000001 -0.000000 -0.000000 8.548615 -4.098575 -0.660259 0.000000 0.000007 -3.000000 -5.000177 -7.999483 0.000066 -9.013054 63.001310 10.902339 -48.436498 117.500823 40.336625 0.000002 0.000006 0.000000 0.706483 4.706335 0.821254 -0.000001 0.000003 3.000471 -5.000213 7.999431 -0.000061 4.079680 -174.469956 5.355117 -179.999991 0.000005 -1.185005 173.596279 -2.254854 -0.509008 -0.000003 -0.000001 0.129333 70.537945 6.913554 1.958309 25.456943 -7.355613 -0.000000 5.212940 175.985616 -1.895626 -0.000005 -0.000004 -1.254480 -6.749136 2.327705 0.292586 -0.000005 0.000000 -0.106924 69.685538 -6.932887 -1.978351 25.456947 7.355613 -0.000010 
59.128506 -11.975121 96.987602 -5.891081 -0.652184 -3.188523 -0.145212 0.195308 -0.153803 3.708192 0.401575 -0.305821 5.353279 0.397402 -0.310556 0.637071 9.618914 -0.995117 4.846023 -8.918451 -1.186845 -10.037767 -70.206367 -12.480307 -56.289942 -116.685941 -43.740183 0.000000 -0.000000 -0.000001 8.502927 -4.043235 -0.666049 -0.000001 0.000008 -3.000000 -5.000181 -7.999482 0.000066 -9.000602 63.002102 10.888022 -48.428452 117.424079 40.277171 0.000001 0.000007 0.000001 0.643401 4.690626 0.822973 -0.000001 0.000003 3.000460 -5.000211 7.999431 -0.000061 4.084182 -174.469997 5.355111 -179.999991 0.000005 -1.185006 173.600514 -2.253882 -0.508730 -0.000002 -0.000001 0.129333 70.538485 6.913557 1.958276 25.456945 -7.355614 0.000001 5.223981 175.986695 -1.895388 -0.000005 -0.000004 -1.254480 -6.733180 2.327384 0.292568 -0.000005 0.000001 -0.106924 69.679705 -6.932890 -1.978315 25.456945 7.355613 -0.000009 
59.128899 -11.987422 96.975693 -5.892004 -0.652598 -3.187646 -0.145097 0.195301 -0.152982 3.707842 0.401114 -0.304709 5.352938 0.396901 -0.309446 0.607937 9.613128 -0.998372 4.863260 -8.927096 -1.189189 -10.049778 -70.210451 -12.493880 -56.335670 -116.659153 -43.705414 -0.000003 0.000000 0.000000 8.457677 -3.987582 -0.671794 -0.000000 0.000008 -3.000000 -5.000181 -7.999483 0.000067 -8.989099 63.002539 10.874780 -48.418689 117.347855 40.216038 0.000001 0.000007 -0.000000 0.581710 4.674942 0.824670 -0.000002 0.000003 3.000450 -5.000211 7.999432 -0.000061 4.088602 -174.470024 5.355046 -179.999991 0.000005 -1.185006 173.604708 -2.253901 -0.509564 -0.000002 -0.000001 0.129333 70.538908 6.913565 1.958352 25.456943 -7.355615 0.000000 5.234623 175.988744 -1.895142 -0.000005 -0.000005 -1.254480 -6.717875 2.327100 0.292549 -0.000005 0.000000 -0.106924 69.674090 -6.932899 -1.978268 25.456947 7.355613 -0.000010 
59.130203 -11.987322 96.978600 -5.892846 -0.652905 -3.186788 -0.145010 0.195296 -0.152187 3.707491 0.400637 -0.303640 5.352588 0.396385 -0.308378 0.578998 9.607757 -1.001437 4.880530 -8.936248 -1.191297 -10.061123 -70.214160 -12.506694 -56.379691 -116.632870 -43.668446 0.000000 0.000001 0.000001 8.413003 -3.931470 -0.677485 0.000002 0.000007 -3.000000 -5.000179 -7.999481 0.000067 -8.978920 63.002491 10.863040 -48.408658 117.271466 40.154918 0.000001 0.000007 0.000000 0.521937 4.659269 0.826354 0.000000 0.000003 3.000440 -5.000209 7.999431 -0.000061 4.092903 -174.471049 5.354839 -179.999991 0.000005 -1.185004 173.608874 -2.252928 -0.509290 -0.000003 -0.000000 0.129332 70.539223 6.913569 1.958331 25.456945 -7.355616 0.000002 5.244741 175.989796 -1.895108 -0.000005 -0.000005 -1.254480 -6.703453 2.326851 0.292525 -0.000005 0.000001 -0.106924 69.669009 -6.932892 -1.978285 25.456950 7.355613 -0.000010 
59.122795 -11.992420 96.985291 -5.893585 -0.653072 -3.185974 -0.144955 0.195296 -0.151427 3.707141 0.400138 -0.302623 5.352228 0.395853 -0.307362 0.550305 9.602927 -1.004256 4.897845 -8.946026 -1.193121 -10.071646 -70.217514 -12.518576 -56.425344 -116.605959 -43.632908 -0.000001 0.000000 -0.000001 8.369071 -3.874793 -0.683163 0.000002 0.000008 -2.999999 -5.000181 -7.999482 0.000067 -8.970434 63.001822 10.853215 -48.397880 117.194722 40.093449 -0.000001 0.000007 0.000001 0.464602 4.643610 0.828030 0.000002 0.000003 3.000440 -5.000209 7.999430 -0.000061 4.097074 -174.471090 5.354613 -179.999991 0.000005 -1.185005 173.612959 -2.251955 -0.509017 -0.000003 -0.000000 0.129331 70.539441 6.913569 1.958317 25.456945 -7.355616 0.000001 5.254169 175.990862 -1.895225 -0.000005 -0.000004 -1.254480 -6.690171 2.326666 0.292498 -0.000006 0.000000 -0.106924 69.664344 -6.932900 -1.978278 25.456948 7.355613 -0.000010 
59.118702 -11.991228 96.981796 -5.894194 -0.653069 -3.185210 -0.144947 0.195301 -0.150705 3.706781 0.399613 -0.301669 5.351868 0.395299 -0.306408 0.521912 9.598739 -1.006775 4.915218 -8.956590 -1.194583 -10.081198 -70.220410 -12.529343 -56.469296 -116.579527 -43.594984 -0.000002 0.000000 0.000001 8.326034 -3.817428 -0.688806 -0.000001 0.000008 -3.000001 -5.000179 -7.999482 0.000067 -8.964026 63.000517 10.845757 -48.383745 117.119071 40.028716 0.000000 0.000007 -0.000000 0.410224 4.627973 0.829706 -0.000000 0.000003 3.000440 -5.000212 7.999431 -0.000061 4.101055 -174.472101 5.354195 -179.999991 0.000005 -1.185006 173.616975 -2.251972 -0.508859 -0.000002 -0.000001 0.129332 70.539441 6.913569 1.958318 25.456947 -7.355617 0.000001 5.262779 175.990930 -1.895617 -0.000005 -0.000005 -1.254480 -6.678270 2.326544 0.292466 -0.000006 0.000001 -0.106924 69.660416 -6.932862 -1.978317 25.456945 7.355613 -0.000010 
59.117702 -12.004622 96.983299 -5.894655 -0.652868 -3.184494 -0.144985 0.195310 -0.150030 3.706410 0.399058 -0.300790 5.351496 0.394722 -0.305529 0.493871 9.595320 -1.008938 4.932644 -8.968049 -1.195633 -10.089528 -70.222664 -12.538737 -56.511428 -116.553517 -43.554501 -0.000002 0.000000 -0.000002 8.284051 -3.759249 -0.694454 0.000002 0.000008 -2.999999 -5.000179 -7.999482 0.000067 -8.960043 62.998359 10.841038 -48.368678 117.042982 39.963611 0.000001 0.000007 -0.000000 0.359324 4.612360 0.831390 0.000001 0.000003 3.000460 -5.000212 7.999431 -0.000061 4.104837 -174.473125 5.353659 -179.999991 0.000005 -1.185005 173.620923 -2.250985 -0.509588 -0.000003 -0.000001 0.129332 70.539332 6.913568 1.958223 25.456947 -7.355616 0.000000 5.270399 175.990971 -1.896230 -0.000005 -0.000005 -1.254480 -6.667981 2.326503 0.292426 -0.000005 0.000001 -0.106924 69.657145 -6.932886 -1.978324 25.456947 7.355612 -0.000009 
